<svg width="216" height="179" viewBox="0 0 216 179" fill="none" xmlns="http://www.w3.org/2000/svg">
<g opacity="0.8" clip-path="url(#clip0_2234_9590)">
<path d="M34.0829 117.335C35.2502 118.232 35.4507 119.783 34.5507 120.954C33.6506 122.126 32.1002 122.331 30.9329 121.434C29.7656 120.537 29.5651 118.986 30.4652 117.815C31.3652 116.644 33.0129 116.513 34.0829 117.335Z" fill="#FFCF2D"/>
<path d="M47.5082 99.8643C48.6755 100.761 48.876 102.312 47.9759 103.484C47.0759 104.655 45.5255 104.86 44.3582 103.963C43.1909 103.066 42.9904 101.515 43.8905 100.344C44.7155 99.2705 46.4382 99.042 47.5082 99.8643Z" fill="#FFCF2D"/>
<path d="M60.8583 82.4922C62.0256 83.3893 62.2261 84.9404 61.326 86.1116C60.426 87.2827 58.8756 87.4883 57.7083 86.5913C56.541 85.6943 56.3405 84.1431 57.2406 82.972C58.1406 81.8008 59.7883 81.67 60.8583 82.4922Z" fill="#FFCF2D"/>
<path d="M74.2836 65.0225C75.4509 65.9195 75.6514 67.4707 74.7513 68.6418C73.8513 69.813 72.3008 70.0186 71.1336 69.1216C69.9663 68.2245 69.7658 66.6734 70.6659 65.5022C71.5659 64.3311 73.2136 64.2002 74.2836 65.0225Z" fill="#FFCF2D"/>
<path d="M87.7089 47.5528C88.8762 48.4498 89.0766 50.001 88.1766 51.1721C87.2766 52.3433 85.7261 52.5489 84.5589 51.6518C83.3916 50.7548 83.1911 49.2037 84.0911 48.0325C84.9162 46.9589 86.6389 46.7305 87.7089 47.5528Z" fill="#FFCF2D"/>
<path d="M101.134 30.0831C102.301 30.9801 102.502 32.5312 101.602 33.7024C100.702 34.8736 99.1514 35.0792 97.9841 34.1821C96.8169 33.2851 96.6164 31.7339 97.5164 30.5628C98.4165 29.3916 100.064 29.2608 101.134 30.0831Z" fill="#FFCF2D"/>
<path d="M114.484 12.711C115.652 13.608 115.852 15.1592 114.952 16.3303C114.052 17.5015 112.502 17.7071 111.334 16.81C110.167 15.913 109.967 14.3619 110.867 13.1907C111.767 12.0195 113.414 11.8887 114.484 12.711Z" fill="#FFCF2D"/>
<path d="M127.91 -4.75874C129.077 -3.8617 129.277 -2.31055 128.377 -1.13939C127.477 0.0317647 125.927 0.237354 124.76 -0.659682C123.592 -1.55672 123.392 -3.10786 124.292 -4.27902C125.192 -5.45018 126.84 -5.58102 127.91 -4.75874Z" fill="#FFCF2D"/>
<path d="M48.5766 128.473C49.7439 129.37 49.9443 130.921 49.0443 132.092C48.1443 133.263 46.5938 133.469 45.4265 132.572C44.2593 131.675 44.0588 130.124 44.9588 128.952C45.8588 127.781 47.4093 127.576 48.5766 128.473Z" fill="#FFCF2D"/>
<path d="M62.0019 111.003C63.1692 111.9 63.3696 113.451 62.4696 114.622C61.5696 115.793 60.0191 115.999 58.8518 115.102C57.6845 114.205 57.4841 112.654 58.3841 111.483C59.2091 110.409 60.8346 110.106 62.0019 111.003Z" fill="#FFCF2D"/>
<path d="M75.352 93.6309C76.5193 94.5279 76.7197 96.0791 75.8197 97.2503C74.9197 98.4214 73.3692 98.627 72.2019 97.73C71.0346 96.8329 70.8342 95.2818 71.7342 94.1106C72.6342 92.9395 74.1847 92.7339 75.352 93.6309Z" fill="#FFCF2D"/>
<path d="M88.7773 76.1612C89.9446 77.0582 90.145 78.6094 89.245 79.7805C88.345 80.9517 86.7945 81.1573 85.6272 80.2602C84.4599 79.3632 84.2595 77.8121 85.1595 76.6409C86.0595 75.4697 87.61 75.2641 88.7773 76.1612Z" fill="#FFCF2D"/>
<path d="M102.203 58.6905C103.37 59.5875 103.57 61.1387 102.67 62.3098C101.77 63.481 100.22 63.6866 99.0525 62.7895C97.8852 61.8925 97.6848 60.3414 98.5848 59.1702C99.4098 58.0966 101.035 57.7934 102.203 58.6905Z" fill="#FFCF2D"/>
<path d="M115.628 41.2208C116.795 42.1178 116.996 43.6689 116.096 44.8401C115.196 46.0113 113.645 46.2169 112.478 45.3198C111.311 44.4228 111.11 42.8716 112.01 41.7005C112.91 40.5293 114.461 40.3237 115.628 41.2208Z" fill="#FFCF2D"/>
<path d="M128.978 23.8487C130.145 24.7457 130.346 26.2969 129.446 27.468C128.546 28.6392 126.995 28.8448 125.828 27.9477C124.661 27.0507 124.46 25.4996 125.36 24.3284C126.26 23.1572 127.811 22.9517 128.978 23.8487Z" fill="#FFCF2D"/>
<path d="M142.403 6.37895C143.571 7.27599 143.771 8.82714 142.871 9.9983C141.971 11.1695 140.42 11.3751 139.253 10.478C138.086 9.58098 137.885 8.02983 138.785 6.85867C139.685 5.68751 141.236 5.48191 142.403 6.37895Z" fill="#FFCF2D"/>
<path d="M5.1928 95.1329C6.36008 96.0299 6.56053 97.581 5.66052 98.7522C4.7605 99.9234 3.21003 100.129 2.04275 99.2319C0.875462 98.3349 0.675012 96.7837 1.57503 95.6126C2.47504 94.4414 4.02552 94.2358 5.1928 95.1329Z" fill="#FFCF2D"/>
<path d="M18.6181 77.6631C19.7854 78.5602 19.9858 80.1113 19.0858 81.2825C18.1858 82.4536 16.6353 82.6592 15.468 81.7622C14.3008 80.8652 14.1003 79.314 15.0003 78.1429C15.8253 77.0693 17.4508 76.7661 18.6181 77.6631Z" fill="#FFCF2D"/>
<path d="M31.9682 60.2911C33.1355 61.1881 33.3359 62.7392 32.4359 63.9104C31.5359 65.0816 29.9854 65.2872 28.8181 64.3901C27.6509 63.4931 27.5254 61.8443 28.3504 60.7708C29.2504 59.5996 30.8009 59.394 31.9682 60.2911Z" fill="#FFCF2D"/>
<path d="M45.3935 42.8213C46.5608 43.7184 46.7612 45.2695 45.8612 46.4407C44.9612 47.6118 43.4107 47.8174 42.2434 46.9204C41.0761 46.0234 40.9507 44.3746 41.7757 43.3011C42.6007 42.2275 44.2262 41.9243 45.3935 42.8213Z" fill="#FFCF2D"/>
<path d="M58.8188 25.3516C59.9861 26.2486 60.1865 27.7998 59.2865 28.971C58.3865 30.1421 56.836 30.3477 55.6687 29.4507C54.5014 28.5536 54.301 27.0025 55.201 25.8313C56.026 24.7578 57.6515 24.4546 58.8188 25.3516Z" fill="#FFCF2D"/>
<path d="M72.2441 7.88091C73.4114 8.77794 73.6118 10.3291 72.7118 11.5002C71.8118 12.6714 70.2613 12.877 69.094 11.98C67.9267 11.0829 67.7263 9.53179 68.6263 8.36062C69.5263 7.18946 71.0768 6.98387 72.2441 7.88091Z" fill="#FFCF2D"/>
<path d="M19.6865 106.272C20.8537 107.169 21.0542 108.72 20.1542 109.891C19.2542 111.062 17.6064 111.193 16.5364 110.371C15.3691 109.474 15.1687 107.922 16.0687 106.751C16.9687 105.58 18.5192 105.374 19.6865 106.272Z" fill="#FFCF2D"/>
<path d="M33.1117 88.8008C34.279 89.6979 34.4795 91.249 33.5795 92.4202C32.6794 93.5913 31.129 93.7969 29.9617 92.8999C28.7944 92.0029 28.594 90.4517 29.494 89.2805C30.319 88.207 31.9445 87.9038 33.1117 88.8008Z" fill="#FFCF2D"/>
<path d="M46.4618 71.4288C47.6291 72.3258 47.8296 73.8769 46.9296 75.0481C46.0295 76.2193 44.4791 76.4249 43.3118 75.5278C42.1445 74.6308 41.9441 73.0796 42.8441 71.9085C43.7441 70.7373 45.2946 70.5317 46.4618 71.4288Z" fill="#FFCF2D"/>
<path d="M59.8871 53.959C61.0544 54.8561 61.2549 56.4072 60.3549 57.5784C59.4548 58.7495 57.9044 58.9551 56.7371 58.0581C55.5698 57.1611 55.3693 55.6099 56.2694 54.4387C57.1694 53.2676 58.7199 53.062 59.8871 53.959Z" fill="#FFCF2D"/>
<path d="M73.3124 36.4893C74.4797 37.3863 74.6802 38.9375 73.7801 40.1086C72.8801 41.2798 71.3297 41.4854 70.1624 40.5884C68.9951 39.6913 68.7946 38.1402 69.6947 36.969C70.5197 35.8955 72.1451 35.5923 73.3124 36.4893Z" fill="#FFCF2D"/>
<path d="M86.7377 19.0196C87.905 19.9166 88.1055 21.4678 87.2054 22.6389C86.3054 23.8101 84.7549 24.0157 83.5877 23.1186C82.4204 22.2216 82.2199 20.6705 83.1199 19.4993C84.02 18.3281 85.5704 18.1225 86.7377 19.0196Z" fill="#FFCF2D"/>
<path d="M100.088 1.64751C101.255 2.54455 101.456 4.09569 100.556 5.26685C99.6555 6.43801 98.105 6.64361 96.9378 5.74657C95.7705 4.84953 95.57 3.29838 96.47 2.12723C97.3701 0.956067 98.9205 0.750477 100.088 1.64751Z" fill="#FFCF2D"/>
<path d="M62.9736 139.536C64.1408 140.433 64.3413 141.984 63.4413 143.156C62.5413 144.327 60.9908 144.532 59.8235 143.635C58.6562 142.738 58.4558 141.187 59.3558 140.016C60.2558 138.845 61.9036 138.714 62.9736 139.536Z" fill="#FFCF2D"/>
<path d="M76.3989 122.066C77.5661 122.963 77.7666 124.515 76.8666 125.686C75.9665 126.857 74.4161 127.063 73.2488 126.166C72.0815 125.268 71.8811 123.717 72.7811 122.546C73.6061 121.473 75.3288 121.244 76.3989 122.066Z" fill="#FFCF2D"/>
<path d="M89.749 104.694C90.9162 105.591 91.1167 107.143 90.2167 108.314C89.3167 109.485 87.7662 109.69 86.5989 108.793C85.4316 107.896 85.2312 106.345 86.1312 105.174C87.0312 104.003 88.6789 103.872 89.749 104.694Z" fill="#FFCF2D"/>
<path d="M103.174 87.2246C104.342 88.1217 104.542 89.6728 103.642 90.844C102.742 92.0152 101.191 92.2208 100.024 91.3237C98.8569 90.4267 98.6565 88.8755 99.5565 87.7044C100.456 86.5332 102.104 86.4024 103.174 87.2246Z" fill="#FFCF2D"/>
<path d="M116.6 69.7549C117.767 70.652 117.967 72.2031 117.067 73.3743C116.167 74.5454 114.617 74.751 113.449 73.854C112.282 72.957 112.082 71.4058 112.982 70.2346C113.807 69.1611 115.53 68.9326 116.6 69.7549Z" fill="#FFCF2D"/>
<path d="M130.025 52.2842C131.192 53.1813 131.393 54.7324 130.493 55.9036C129.593 57.0747 128.042 57.2803 126.875 56.3833C125.707 55.4863 125.507 53.9351 126.407 52.7639C127.307 51.5928 128.955 51.4619 130.025 52.2842Z" fill="#FFCF2D"/>
<path d="M143.375 34.9121C144.542 35.8092 144.743 37.3603 143.843 38.5315C142.943 39.7027 141.392 39.9083 140.225 39.0112C139.058 38.1142 138.857 36.563 139.757 35.3919C140.657 34.2207 142.305 34.0899 143.375 34.9121Z" fill="#FFCF2D"/>
<path d="M156.8 17.4424C157.968 18.3395 158.168 19.8906 157.268 21.0618C156.368 22.2329 154.817 22.4385 153.65 21.5415C152.483 20.6445 152.282 19.0933 153.182 17.9221C154.082 16.751 155.73 16.6201 156.8 17.4424Z" fill="#FFCF2D"/>
<path d="M170.226 -0.0272945C171.393 0.86974 171.593 2.42088 170.693 3.59204C169.793 4.7632 168.243 4.9688 167.075 4.07176C165.908 3.17473 165.708 1.62358 166.608 0.452417C167.433 -0.621146 169.155 -0.849576 170.226 -0.0272945Z" fill="#FFCF2D"/>
<path d="M77.4672 150.674C78.6345 151.571 78.8349 153.122 77.9349 154.293C77.0349 155.464 75.4844 155.67 74.3172 154.773C73.1499 153.876 72.9494 152.325 73.8494 151.154C74.7495 149.982 76.2999 149.777 77.4672 150.674Z" fill="#FFCF2D"/>
<path d="M90.8925 133.204C92.0598 134.101 92.2602 135.652 91.3602 136.823C90.4602 137.995 88.9097 138.2 87.7424 137.303C86.5752 136.406 86.3747 134.855 87.2747 133.684C88.0998 132.61 89.7252 132.307 90.8925 133.204Z" fill="#FFCF2D"/>
<path d="M104.243 115.832C105.41 116.729 105.61 118.28 104.71 119.451C103.81 120.623 102.26 120.828 101.093 119.931C99.9253 119.034 99.7248 117.483 100.625 116.312C101.525 115.141 103.075 114.935 104.243 115.832Z" fill="#FFCF2D"/>
<path d="M118.136 101.982C119.005 100.85 118.796 99.2293 117.668 98.3623C116.54 97.4954 114.92 97.7101 114.05 98.8421C113.18 99.974 113.39 101.594 114.518 102.461C115.646 103.328 117.266 103.114 118.136 101.982Z" fill="#FFCF2D"/>
<path d="M131.093 80.8926C132.26 81.7897 132.461 83.3408 131.561 84.512C130.661 85.6831 129.11 85.8887 127.943 84.9917C126.776 84.0946 126.575 82.5435 127.475 81.3723C128.3 80.2988 129.926 79.9956 131.093 80.8926Z" fill="#FFCF2D"/>
<path d="M144.518 63.4229C145.686 64.3199 145.886 65.8711 144.986 67.0422C144.086 68.2134 142.536 68.419 141.368 67.522C140.201 66.6249 140.001 65.0738 140.901 63.9026C141.801 62.7315 143.351 62.5259 144.518 63.4229Z" fill="#FFCF2D"/>
<path d="M157.869 46.0508C159.036 46.9479 159.236 48.499 158.336 49.6702C157.436 50.8413 155.886 51.0469 154.719 50.1499C153.551 49.2529 153.351 47.7017 154.251 46.5305C155.151 45.3594 156.701 45.1538 157.869 46.0508Z" fill="#FFCF2D"/>
<path d="M171.762 32.2004C172.631 31.0685 172.422 29.4481 171.294 28.5811C170.166 27.7141 168.546 27.9289 167.676 29.0608C166.806 30.1927 167.016 31.8132 168.144 32.6802C169.272 33.5471 170.892 33.3324 171.762 32.2004Z" fill="#FFCF2D"/>
<path d="M184.719 11.1114C185.886 12.0084 186.087 13.5595 185.187 14.7307C184.287 15.9019 182.736 16.1075 181.569 15.2104C180.402 14.3134 180.201 12.7622 181.101 11.5911C181.926 10.5175 183.552 10.2143 184.719 11.1114Z" fill="#FFCF2D"/>
<path d="M91.9609 161.813C93.1282 162.71 93.3286 164.261 92.4286 165.432C91.5286 166.603 89.9781 166.809 88.8108 165.912C87.6435 165.015 87.4431 163.463 88.3431 162.292C89.2431 161.121 90.7936 160.916 91.9609 161.813Z" fill="#FFCF2D"/>
<path d="M105.386 144.343C106.553 145.24 106.754 146.791 105.854 147.962C104.954 149.133 103.403 149.339 102.236 148.442C101.069 147.545 100.868 145.994 101.768 144.823C102.593 143.749 104.219 143.446 105.386 144.343Z" fill="#FFCF2D"/>
<path d="M118.736 126.971C119.904 127.868 120.104 129.419 119.204 130.59C118.304 131.761 116.753 131.967 115.586 131.07C114.419 130.173 114.218 128.622 115.118 127.45C116.018 126.279 117.569 126.074 118.736 126.971Z" fill="#FFCF2D"/>
<path d="M132.162 109.501C133.329 110.398 133.529 111.949 132.629 113.12C131.729 114.292 130.179 114.497 129.012 113.6C127.844 112.703 127.644 111.152 128.544 109.981C129.444 108.81 130.994 108.604 132.162 109.501Z" fill="#FFCF2D"/>
<path d="M145.587 92.0313C146.754 92.9283 146.955 94.4795 146.055 95.6506C145.155 96.8218 143.604 97.0274 142.437 96.1304C141.27 95.2333 141.069 93.6822 141.969 92.511C142.794 91.4375 144.42 91.1343 145.587 92.0313Z" fill="#FFCF2D"/>
<path d="M159.012 74.5606C160.179 75.4576 160.38 77.0088 159.48 78.1799C158.58 79.3511 157.029 79.5567 155.862 78.6597C154.695 77.7626 154.494 76.2115 155.394 75.0403C156.294 73.8692 157.845 73.6636 159.012 74.5606Z" fill="#FFCF2D"/>
<path d="M172.362 57.1885C173.53 58.0856 173.73 59.6367 172.83 60.8079C171.93 61.979 170.379 62.1846 169.212 61.2876C168.045 60.3906 167.844 58.8394 168.744 57.6682C169.644 56.4971 171.195 56.2915 172.362 57.1885Z" fill="#FFCF2D"/>
<path d="M185.788 39.7188C186.955 40.6158 187.155 42.167 186.255 43.3381C185.355 44.5093 183.805 44.7149 182.637 43.8179C181.47 42.9208 181.27 41.3697 182.17 40.1985C183.07 39.0274 184.62 38.8218 185.788 39.7188Z" fill="#FFCF2D"/>
<path d="M199.213 22.2491C200.38 23.1461 200.581 24.6973 199.681 25.8684C198.781 27.0396 197.23 27.2452 196.063 26.3481C194.895 25.4511 194.695 23.8999 195.595 22.7288C196.42 21.6552 198.046 21.352 199.213 22.2491Z" fill="#FFCF2D"/>
<path d="M106.357 172.876C107.525 173.773 107.725 175.324 106.825 176.495C105.925 177.667 104.375 177.872 103.207 176.975C102.04 176.078 101.84 174.527 102.74 173.356C103.64 172.185 105.287 172.054 106.357 172.876Z" fill="#FFCF2D"/>
<path d="M119.783 155.406C120.95 156.303 121.15 157.854 120.25 159.026C119.35 160.197 117.8 160.402 116.633 159.505C115.465 158.608 115.265 157.057 116.165 155.886C116.99 154.812 118.713 154.584 119.783 155.406Z" fill="#FFCF2D"/>
<path d="M133.133 138.034C134.3 138.931 134.5 140.482 133.6 141.654C132.7 142.825 131.15 143.03 129.983 142.133C128.815 141.236 128.615 139.685 129.515 138.514C130.415 137.343 132.063 137.212 133.133 138.034Z" fill="#FFCF2D"/>
<path d="M146.558 120.564C147.725 121.462 147.926 123.013 147.026 124.184C146.126 125.355 144.575 125.561 143.408 124.664C142.241 123.767 142.04 122.215 142.94 121.044C143.84 119.873 145.488 119.742 146.558 120.564Z" fill="#FFCF2D"/>
<path d="M159.983 103.094C161.151 103.991 161.351 105.542 160.451 106.713C159.551 107.884 158.001 108.09 156.833 107.193C155.666 106.296 155.466 104.745 156.366 103.574C157.191 102.5 158.913 102.272 159.983 103.094Z" fill="#FFCF2D"/>
<path d="M173.409 85.6241C174.576 86.5211 174.776 88.0723 173.876 89.2434C172.976 90.4146 171.426 90.6202 170.259 89.7231C169.091 88.8261 168.891 87.275 169.791 86.1038C170.691 84.9326 172.339 84.8018 173.409 85.6241Z" fill="#FFCF2D"/>
<path d="M186.759 68.252C187.926 69.149 188.126 70.7002 187.226 71.8713C186.326 73.0425 184.776 73.2481 183.609 72.3511C182.441 71.454 182.241 69.9029 183.141 68.7317C184.041 67.5606 185.689 67.4297 186.759 68.252Z" fill="#FFCF2D"/>
<path d="M200.184 50.7823C201.351 51.6793 201.552 53.2305 200.652 54.4016C199.752 55.5728 198.201 55.7784 197.034 54.8813C195.867 53.9843 195.666 52.4332 196.566 51.262C197.466 50.0908 199.114 49.96 200.184 50.7823Z" fill="#FFCF2D"/>
<path d="M213.609 33.3126C214.777 34.2096 214.977 35.7607 214.077 36.9319C213.177 38.103 211.627 38.3086 210.459 37.4116C209.292 36.5146 209.092 34.9634 209.992 33.7923C210.817 32.7187 212.539 32.4903 213.609 33.3126Z" fill="#FFCF2D"/>
</g>
<defs>
<clipPath id="clip0_2234_9590">
<rect width="181.184" height="132.739" fill="white" transform="translate(0 97.6621) rotate(-52.4584)"/>
</clipPath>
</defs>
</svg>
